# xmcd
# 
# Track frame offsets:
#     150
#     24035
#     45576
#     72881
#     96135
#     120429
#     142422
#     167336
#     188584
#     213120
#     233521
# 
# Disc length: 3373
# 
# Revision: 0
# Processed by: cddbd v1.5.2PL0 Copyright (c) Steve Scherf et al.
# Submitted via: fre:ac v1.0.31
# 
DISCID=820d2b0b
DTITLE=HACHIMITSU LEMON_Aftergrow - TOUHOU SIX STRING BEST COLLECTION
DYEAR=2018
DGENRE=
TTITLE0=empties【須臾はプランクを超えて】／真野紫
TTITLE1=P.S.【G Free】／kalon
TTITLE2=calling【アガルタの風】／真野紫
TTITLE3=Step by the Step【天空のグリニッジ】／真野紫
TTITLE4=faust【トロヤ群の密林】／mineko
TTITLE5=月の花【科学世紀の少年少女】／ゆーな
TTITLE6=shuffle shifting【少女綺想曲】／mineko
TTITLE7=アメノカゼ【明日ハレの日、ケの昨日】／真野紫
TTITLE8=ワスレナグサ【懐かしき東方の血】【エクステンドアッシュ】【プレインエイジア】【月まで届け、不死の煙】／ゆーな
TTITLE9=笑顔のままで【メイドと血の懐中時計】【月時計 ～ ルナ・ダイヤル】／ゆーな
TTITLE10=umbrella【他愛のない二人の博物誌】／真野紫
EXTD=
EXTT0=
EXTT1=
EXTT2=
EXTT3=
EXTT4=
EXTT5=
EXTT6=
EXTT7=
EXTT8=
EXTT9=
EXTT10=
PLAYORDER=
